
<svg version="1.1" xmlns="http://www.w3.org/2000/svg" xmlns:xlink="http://www.w3.org/1999/xlink" x="0px" y="0px" viewBox="0 0 1000 1000" enable-background="new 0 0 1000 1000" xml:space="preserve">
<metadata> Svg Vector Icons : http://www.onlinewebfonts.com/icon </metadata>
  <g><path d="M946.6,778.4H54c-24.5,0-44,19.6-44,44c0,24.5,19.6,44,44,44H946c24.5,0,44-19.6,44-44l0,0C990,798.7,970.4,779.1,946.6,778.4z" style="fill:#11cd6e"></path><path d="M645.8,357.9c27.7,0,49.6-22.1,49.6-49.6c0-27.7-22.8-49.6-49.6-49.6c-27.7,0-49.6,22.1-49.6,49.6C596.3,336,618.4,357.9,645.8,357.9z" style="fill:#11cd6e"></path><path d="M846.2,232.4c16,0,28.7-12.8,28.7-28.7c0-16-12.8-28.7-28.7-28.7c-16,0-28.7,12.8-28.7,28.7C817.5,219.6,830.2,232.4,846.2,232.4z" style="fill:#11cd6e"></path><path d="M482.5,641.9c27.7,0,49.6-22.1,49.6-49.6c0-27-22.1-49.6-49.6-49.6c-27.7,0-49.6,22.1-49.6,49.6C432.9,619.8,454.8,641.9,482.5,641.9L482.5,641.9z" style="fill:#11cd6e"></path><path d="M887.2,604.4c27.7,0,49.6-22.1,49.6-49.6c0-27.7-22.8-49.6-49.6-49.6c-27.7,0-49.6,22.1-49.6,49.6C837.7,582.3,859.6,604.4,887.2,604.4z" style="fill:#11cd6e"></path><path d="M413.7,319.4c16,0,28.7-12.8,28.7-28.7S430.1,262,413.7,262c-16,0-28.7,12.8-28.7,28.7C385,306.4,397.8,319.4,413.7,319.4z" style="fill:#11cd6e"></path><path d="M116.1,190.9c16,0,28.7-12.8,28.7-28.7c0-16-12.8-28.7-28.7-28.7c-16,0-28.7,12.8-28.7,28.7C87.2,178.2,100.2,190.9,116.1,190.9z" style="fill:#11cd6e"></path><path d="M135.1,563.6c27.7,0,49.6-22.1,49.6-49.6c0-27.7-22.8-49.6-49.6-49.6c-27.7,0-49.6,22.1-49.6,49.6C85.5,541.5,107.4,563.6,135.1,563.6z" style="fill:#11cd6e"></path><path d="M615.4,697.8c0,16,12.8,28.7,28.7,28.7c16,0,28.7-12.8,28.7-28.7s-12.3-28.7-28.7-28.7C628.4,669.1,615.4,682.1,615.4,697.8z" style="fill:#11cd6e"></path><path d="M105.7,710.4c0,16,12.8,28.7,28.7,28.7c16,0,28.7-12.8,28.7-28.7s-12.3-28.7-28.7-28.7C118.5,681.4,105.7,694.4,105.7,710.4z" style="fill:#11cd6e"></path></g></svg>
  