<?xml version="1.0" encoding="iso-8859-1"?>
<!-- Generator: Adobe Illustrator 19.0.0, SVG Export Plug-In . SVG Version: 6.00 Build 0)  -->
<svg version="1.1" id="Layer_1" xmlns="http://www.w3.org/2000/svg" xmlns:xlink="http://www.w3.org/1999/xlink" x="0px" y="0px"
	 viewBox="0 0 512.003 512.003" style="enable-background:new 0 0 512.003 512.003;" xml:space="preserve">
<path style="fill:#EE8700;" d="M44.504,77.431c0,42.695,34.735,77.431,77.431,77.431s77.431-34.735,77.431-77.431
	S164.63,0,121.935,0S44.504,34.735,44.504,77.431z M121.935,46.458c17.078,0,30.972,13.894,30.972,30.972
	s-13.894,30.972-30.972,30.972S90.963,94.509,90.963,77.431S104.857,46.458,121.935,46.458z"/>
<path style="fill:#424EDE;" d="M351.2,248.755c28.951,0,56.173,11.275,76.644,31.748c9.07,9.072,23.779,9.072,32.851,0.002
	c9.072-9.072,9.072-23.779,0-32.851c-29.247-29.249-68.133-45.356-109.495-45.356c-0.003,0,0.002,0-0.002,0
	c-41.359,0-80.249,16.109-109.496,45.356c-60.376,60.376-60.376,158.615,0,218.994c29.249,29.247,68.134,45.356,109.496,45.356
	c41.363,0,80.249-16.107,109.496-45.356c9.072-9.072,9.072-23.779,0-32.851c-9.07-9.072-23.779-9.072-32.851,0
	c-20.473,20.473-47.693,31.747-76.645,31.747c-28.951,0-56.171-11.275-76.645-31.747c-42.262-42.263-42.262-111.031,0-153.292
	C295.028,260.03,322.248,248.753,351.2,248.755z"/>
<g>
</g>
<g>
</g>
<g>
</g>
<g>
</g>
<g>
</g>
<g>
</g>
<g>
</g>
<g>
</g>
<g>
</g>
<g>
</g>
<g>
</g>
<g>
</g>
<g>
</g>
<g>
</g>
<g>
</g>
</svg>
