
<svg version="1.1" xmlns="http://www.w3.org/2000/svg" xmlns:xlink="http://www.w3.org/1999/xlink" x="0px" y="0px" viewBox="0 0 1000 1000" enable-background="new 0 0 1000 1000" xml:space="preserve">
<metadata> Svg Vector Icons : http://www.onlinewebfonts.com/icon </metadata>
  <g><path d="M171.7,753.9C103.1,748.4,51,691.4,51,620.4c0-65.5,45.9-121.3,109.6-131.7l18.4-3.1l-1.8-19.6c0.6-123.7,93.1-217.4,218.7-226.6c33.1-16.5,69.8-27.6,109-30.6c-26.3-7.4-56.4-11-89.4-11c-151.3,0-270.7,110.3-278.1,253.6C62.7,472.1,10,540.1,10,620.4c0,96.8,77.8,175.2,173.3,175.2h51.4C210.9,786.3,188.9,772.3,171.7,753.9L171.7,753.9z" style="fill:#00bb9c"></path><path d="M766.4,352.1c-36.1-97.4-113.3-144.6-235.8-144.6c-152.5,0-273.2,110.9-280.5,254.8c-75.3,20.2-128.6,88.8-128.6,169.1c0,82.7,57,152.5,134.1,170.9h554.3C915.3,780.8,990,690.2,990,579.3C990,462.9,888.9,361.9,766.4,352.1L766.4,352.1z M786.7,764.3l-13.5,1.8H296.6c-74.7,0-133.5-59.4-133.5-134.8c0-66.2,46.5-121.9,110.9-132.3l19-3.1l-1.8-19.6c0-129.9,102.9-227.9,239.5-227.9c109,0,172.7,41,200.9,129.2l4.3,14.1h14.7c105.4,1.8,197.8,89.4,197.8,187.4C949,675.5,881,753.3,786.7,764.3L786.7,764.3z" style="fill:#00bb9c"></path></g></svg>
  